<?xml version="1.0" standalone="no"?>
<!DOCTYPE svg PUBLIC "-//W3C//DTD SVG 20010904//EN"
 "http://www.w3.org/TR/2001/REC-SVG-20010904/DTD/svg10.dtd">
<svg version="1.0" xmlns="http://www.w3.org/2000/svg"
 width="700.000000pt" height="700.000000pt" viewBox="0 0 700.000000 700.000000"
 preserveAspectRatio="xMidYMid meet">
<metadata>
Created by potrace 1.11, written by Peter Selinger 2001-2013
</metadata>
<g transform="translate(0.000000,700.000000) scale(0.100000,-0.100000)"
fill="#000000" stroke="none">
<path d="M89 6978 c-35 -13 -67 -55 -75 -96 -4 -20 -8 -1554 -8 -3408 l0
-3370 21 -35 c38 -59 49 -62 283 -60 l85 1 0 3485 c0 2316 -3 3485 -10 3486
-47 6 -279 3 -296 -3z"/>
<path d="M495 6980 c-2 -3 -3 -1572 -3 -3487 l0 -3483 31 0 c50 -1 299 -1 330
-1 l27 1 -2 3487 -3 3488 -188 0 c-104 0 -190 -2 -192 -5z"/>
<path d="M980 6823 c0 -90 0 -1173 0 -2408 0 -1235 0 -2732 0 -3328 l0 -1083
144 1 c129 1 147 3 166 20 36 32 48 66 55 150 4 44 10 98 14 120 9 48 6 6380
-2 6414 -4 13 -9 57 -12 98 -6 83 -22 129 -54 157 -19 17 -39 19 -166 21
l-145 1 0 -163z"/>
<path d="M5733 6982 c-39 -6 -81 -65 -87 -124 -3 -29 -9 -78 -13 -108 -10 -72
-10 -6427 0 -6505 4 -33 10 -82 13 -110 14 -115 42 -131 226 -130 l133 0 0
3490 0 3489 -125 1 c-69 0 -135 -1 -147 -3z"/>
<path d="M6109 6965 c-1 -11 -2 -1580 -3 -3487 l-1 -3468 60 0 c238 -2 319 0
324 9 5 7 6 6909 2 6956 -1 6 -71 10 -191 10 -184 0 -190 0 -191 -20z"/>
<path d="M6600 6975 c-6 -7 -9 -1372 -9 -3488 l0 -3477 47 -1 c211 -3 256 0
281 19 14 10 34 34 43 53 17 32 18 216 18 3412 0 3663 4 3413 -54 3466 -25 23
-32 25 -171 26 -97 1 -149 -2 -155 -10z"/>
<path d="M1470 6225 c0 -22 -1 -5234 0 -5385 l1 -95 48 125 c77 200 176 389
287 546 l49 70 0 2010 0 2010 -31 39 c-98 127 -242 403 -320 610 -18 50 -33
81 -34 70z"/>
<path d="M5486 6154 c-54 -152 -200 -433 -305 -588 l-48 -71 1 -2005 1 -2005
56 -80 c110 -157 201 -332 280 -535 35 -90 49 -117 49 -95 4 121 1 5447 -3
5451 -2 2 -16 -30 -31 -72z"/>
<path d="M4934 5276 c-56 -57 -143 -137 -193 -176 -50 -40 -92 -75 -92 -79 -1
-3 -2 -692 -3 -1530 l-1 -1523 80 -65 c44 -36 131 -116 193 -178 l112 -113 1
72 c0 39 1 887 2 1883 1 997 2 1813 2 1813 0 0 -46 -47 -101 -104z"/>
<path d="M1958 5366 c0 0 -2 -846 -3 -1878 l-2 -1878 110 111 c61 60 148 140
194 176 l83 66 0 1532 0 1533 -77 58 c-43 32 -129 108 -190 170 -62 61 -114
111 -115 110z"/>
<path d="M2440 3510 l0 -1335 49 74 c63 95 184 226 271 296 l68 55 0 905 0
905 -37 27 c-102 77 -223 211 -308 342 l-43 66 0 -1335z"/>
<path d="M4484 4723 c-61 -91 -195 -232 -276 -293 l-47 -35 0 -900 0 -900 45
-35 c103 -77 231 -215 303 -328 18 -28 34 -52 35 -52 1 0 2 592 2 1315 0 723
-1 1315 -1 1315 -1 0 -28 -39 -61 -87z"/>
<path d="M2926 3517 c1 -452 2 -830 3 -839 1 -14 14 -10 85 23 47 22 131 51
188 66 57 15 105 28 107 30 2 1 4 316 4 700 l0 697 -29 8 c-16 4 -40 10 -54
12 -41 7 -132 41 -216 82 -43 20 -81 39 -84 40 -3 1 -4 -368 -4 -819z"/>
<path d="M4015 4311 c-51 -29 -164 -71 -247 -91 -44 -10 -83 -22 -87 -25 -3
-4 -6 -321 -7 -705 l0 -698 55 -11 c31 -6 59 -11 63 -12 4 0 31 -10 60 -21 29
-11 64 -23 78 -27 14 -5 49 -20 78 -35 l52 -26 0 835 c0 459 -3 835 -7 834 -5
0 -21 -8 -38 -18z"/>
</g>
</svg>
