<svg width="320" height="320" viewBox="0 0 320 320" fill="none" xmlns="http://www.w3.org/2000/svg">
<path d="M0 50C0 22.3858 22.3858 0 50 0V0C77.6142 0 100 22.3858 100 50V200H50C22.3858 200 0 177.614 0 150V50Z" transform="translate(220 120)" fill="#00D646"/>
<path d="M0 50C0 22.3858 22.3858 0 50 0V0C77.6142 0 100 22.3858 100 50V150C100 177.614 77.6142 200 50 200H0V50Z" transform="translate(0 120)" fill="#FF3D56"/>
<path d="M0 50C0 22.3858 22.3858 0 50 0V0C77.6142 0 100 22.3858 100 50V150C100 177.614 77.6142 200 50 200V200C22.3858 200 0 177.614 0 150V50Z" transform="translate(110)" fill="#FFCB02"/>
</svg>
