<?xml version="1.0" encoding="UTF-8"?>
<svg width="208px" height="208px" viewBox="0 0 208 208" version="1.1" xmlns="http://www.w3.org/2000/svg" xmlns:xlink="http://www.w3.org/1999/xlink">
    <!-- Generator: Sketch 46 (44423) - http://www.bohemiancoding.com/sketch -->
    <title>好好工作logo-01</title>
    <desc>Created with Sketch.</desc>
    <defs>
        <filter x="-3.5%" y="-2.5%" width="107.0%" height="107.0%" filterUnits="objectBoundingBox" id="filter-1">
            <feOffset dx="0" dy="2" in="SourceAlpha" result="shadowOffsetOuter1"></feOffset>
            <feGaussianBlur stdDeviation="2" in="shadowOffsetOuter1" result="shadowBlurOuter1"></feGaussianBlur>
            <feColorMatrix values="0 0 0 0 0   0 0 0 0 0   0 0 0 0 0  0 0 0 0.5 0" type="matrix" in="shadowBlurOuter1" result="shadowMatrixOuter1"></feColorMatrix>
            <feMerge>
                <feMergeNode in="shadowMatrixOuter1"></feMergeNode>
                <feMergeNode in="SourceGraphic"></feMergeNode>
            </feMerge>
        </filter>
    </defs>
    <g id="Page-1" stroke="none" stroke-width="1" fill="none" fill-rule="evenodd">
        <g id="好好工作logo-01" filter="url(#filter-1)" transform="translate(4.000000, 2.000000)" fill-rule="nonzero" fill="#FFFFFF">
            <g id="Group">
                <g transform="translate(104.854369, 0.000000)">
                    <rect id="Rectangle-path" x="69.6116505" y="0.446927374" width="11.0679612" height="199.329609"></rect>
                    <path d="M41.8446602,42.7932961 L41.8446602,157.541899 C46.0194175,162.905028 50,170.167598 52.9126214,178.994413 L52.9126214,21.2290503 C51.0679612,27.4860335 46.2135922,37.0949721 41.8446602,42.7932961 Z" id="Shape"></path>
                    <path d="M56.407767,4.24581006 C56.407767,4.24581006 56.2135922,8.26815642 55.7281553,9.83240223 L55.7281553,175.75419 C55.8252427,175.977654 55.7281553,190.27933 55.7281553,190.391061 C56.2135922,192.178771 56.407767,196.089385 56.407767,196.089385 C56.407767,198.212291 57.7669903,199.888268 59.5145631,199.888268 L66.7961165,199.888268 L66.7961165,0.446927374 L59.5145631,0.446927374 C57.7669903,0.446927374 56.407767,2.12290503 56.407767,4.24581006 Z" id="Shape"></path>
                    <path d="M91.3592233,0.446927374 L83.4951456,0.446927374 L83.4951456,199.776536 L91.3592233,199.776536 C93.1067961,199.776536 94.5631068,198.100559 94.5631068,195.977654 L94.5631068,4.3575419 C94.5631068,2.23463687 93.1067961,0.446927374 91.3592233,0.446927374 Z" id="Shape"></path>
                    <path d="M27.8640777,143.910615 C31.7475728,146.703911 35.0485437,149.72067 38.9320388,154.078212 L38.9320388,46.2569832 C35.5339806,50.1675978 32.5242718,53.0726257 27.8640777,56.424581 L27.8640777,143.910615 Z" id="Shape"></path>
                    <path d="M13.9805825,125.810056 C17.6699029,128.49162 21.4563107,131.731844 25.0485437,137.988827 L25.0485437,62.3463687 C22.038835,67.5977654 18.6407767,71.0614525 13.9805825,74.5251397 L13.9805825,125.810056 Z" id="Shape"></path>
                    <path d="M0.0970873786,120.223464 C3.68932039,120.782123 6.7961165,121.675978 11.1650485,124.022346 L11.1650485,76.2011173 C7.18446602,78.3240223 4.36893204,79.3296089 0.0970873786,80 L0.0970873786,120.223464 Z" id="Shape"></path>
                </g>
                <g>
                    <rect id="Rectangle-path" x="14.0776699" y="0.446927374" width="11.0679612" height="199.329609"></rect>
                    <path d="M53.0097087,42.7932961 L53.0097087,157.541899 C48.8349515,162.905028 44.8543689,170.167598 41.9417476,178.994413 L41.9417476,21.2290503 C43.7864078,27.4860335 48.5436893,37.0949721 53.0097087,42.7932961 Z" id="Shape"></path>
                    <path d="M38.3495146,4.24581006 C38.3495146,4.24581006 38.5436893,8.26815642 39.0291262,9.83240223 L39.0291262,175.75419 C38.9320388,175.977654 39.0291262,190.27933 39.0291262,190.391061 C38.5436893,192.178771 38.3495146,196.089385 38.3495146,196.089385 C38.3495146,198.212291 36.9902913,199.888268 35.2427184,199.888268 L27.961165,199.888268 L27.961165,0.446927374 L35.2427184,0.446927374 C36.9902913,0.446927374 38.3495146,2.12290503 38.3495146,4.24581006 Z" id="Shape"></path>
                    <path d="M3.39805825,0.446927374 L11.2621359,0.446927374 L11.2621359,199.776536 L3.39805825,199.776536 C1.65048544,199.776536 0.194174757,198.100559 0.194174757,195.977654 L0.194174757,4.3575419 C0.194174757,2.23463687 1.65048544,0.446927374 3.39805825,0.446927374 Z" id="Shape"></path>
                    <path d="M66.8932039,143.910615 C63.0097087,146.703911 59.7087379,149.72067 55.8252427,154.078212 L55.8252427,46.2569832 C59.223301,50.1675978 62.2330097,53.0726257 66.8932039,56.424581 L66.8932039,143.910615 Z" id="Shape"></path>
                    <path d="M80.776699,125.810056 C77.0873786,128.49162 73.3009709,131.731844 69.7087379,137.988827 L69.7087379,61.452514 C72.7184466,66.7039106 76.1165049,70.726257 80.776699,74.0782123 L80.776699,125.810056 Z" id="Shape"></path>
                    <path d="M94.6601942,120.223464 C91.0679612,120.782123 87.961165,121.675978 83.592233,124.022346 L83.592233,75.9776536 C87.5728155,78.1005587 90.3883495,79.4413408 94.6601942,80.1117318 L94.6601942,120.223464 Z" id="Shape"></path>
                </g>
            </g>
        </g>
    </g>
</svg>